<svg width="1024" height="753" viewBox="0 0 1024 753" fill="none" xmlns="http://www.w3.org/2000/svg">
<g opacity="0.2" filter="url(#filter0_f_175_198)">
<ellipse cx="519.5" cy="40" rx="670.5" ry="350" fill="#35875D"/>
</g>
<path d="M40.0349 276C41.5302 276 42.6622 276.63 43.4308 277.891C44.2134 279.138 44.6047 280.953 44.6047 283.336C44.6047 285.719 44.2134 287.541 43.4308 288.802C42.6622 290.063 41.5302 290.693 40.0349 290.693C38.5536 290.693 37.4216 290.063 36.639 288.802C35.8564 287.541 35.4651 285.719 35.4651 283.336C35.4651 280.967 35.8564 279.152 36.639 277.891C37.4216 276.63 38.5536 276 40.0349 276ZM36.9534 283.336C36.9534 285.026 37.1072 286.35 37.4146 287.306L42.0683 278.099C41.5791 277.448 40.9013 277.122 40.0349 277.122C39.0706 277.122 38.316 277.635 37.771 278.66C37.2259 279.672 36.9534 281.23 36.9534 283.336ZM40.0349 289.55C41.0131 289.55 41.7748 289.044 42.3198 288.033C42.8648 287.008 43.1373 285.442 43.1373 283.336C43.1373 281.549 42.9627 280.163 42.6133 279.18L37.9596 288.469C38.4627 289.19 39.1545 289.55 40.0349 289.55Z" fill="url(#paint0_linear_175_198)" fill-opacity="0.6"/>
<path d="M41.2926 313.135H44.3741V314.236H36.3874V313.135H39.9511V301.455L36.5551 303.471L35.9682 302.536L40.1607 299.959H41.2926V313.135Z" fill="url(#paint1_linear_175_198)" fill-opacity="0.6"/>
<path d="M40.0349 323.502C41.5302 323.502 42.6622 324.133 43.4308 325.393C44.2134 326.64 44.6047 328.455 44.6047 330.838C44.6047 333.221 44.2134 335.043 43.4308 336.304C42.6622 337.565 41.5302 338.195 40.0349 338.195C38.5536 338.195 37.4216 337.565 36.639 336.304C35.8564 335.043 35.4651 333.221 35.4651 330.838C35.4651 328.469 35.8564 326.654 36.639 325.393C37.4216 324.133 38.5536 323.502 40.0349 323.502ZM36.9534 330.838C36.9534 332.529 37.1072 333.852 37.4146 334.808L42.0683 325.601C41.5791 324.95 40.9013 324.624 40.0349 324.624C39.0706 324.624 38.316 325.137 37.771 326.162C37.2259 327.174 36.9534 328.732 36.9534 330.838ZM40.0349 337.052C41.0131 337.052 41.7748 336.546 42.3198 335.535C42.8648 334.51 43.1373 332.944 43.1373 330.838C43.1373 329.051 42.9627 327.665 42.6133 326.682L37.9596 335.971C38.4627 336.692 39.1545 337.052 40.0349 337.052Z" fill="url(#paint2_linear_175_198)" fill-opacity="0.6"/>
<path d="M41.2926 360.637H44.3741V361.738H36.3874V360.637H39.9511V348.957L36.5551 350.973L35.9682 350.038L40.1607 347.461H41.2926V360.637Z" fill="url(#paint3_linear_175_198)" fill-opacity="0.6"/>
<path d="M41.2926 384.388H44.3741V385.489H36.3874V384.388H39.9511V372.708L36.5551 374.724L35.9682 373.789L40.1607 371.212H41.2926V384.388Z" fill="url(#paint4_linear_175_198)" fill-opacity="0.6"/>
<path d="M40.0349 394.755C41.5302 394.755 42.6622 395.386 43.4308 396.646C44.2134 397.893 44.6047 399.708 44.6047 402.091C44.6047 404.474 44.2134 406.296 43.4308 407.557C42.6622 408.818 41.5302 409.448 40.0349 409.448C38.5536 409.448 37.4216 408.818 36.639 407.557C35.8564 406.296 35.4651 404.474 35.4651 402.091C35.4651 399.722 35.8564 397.907 36.639 396.646C37.4216 395.386 38.5536 394.755 40.0349 394.755ZM36.9534 402.091C36.9534 403.782 37.1072 405.105 37.4146 406.061L42.0683 396.854C41.5791 396.203 40.9013 395.878 40.0349 395.878C39.0706 395.878 38.316 396.39 37.771 397.415C37.2259 398.427 36.9534 399.985 36.9534 402.091ZM40.0349 408.305C41.0131 408.305 41.7748 407.8 42.3198 406.788C42.8648 405.763 43.1373 404.197 43.1373 402.091C43.1373 400.304 42.9627 398.919 42.6133 397.935L37.9596 407.225C38.4627 407.945 39.1545 408.305 40.0349 408.305Z" fill="url(#paint5_linear_175_198)" fill-opacity="0.6"/>
<path d="M41.2926 431.89H44.3741V432.992H36.3874V431.89H39.9511V420.21L36.5551 422.226L35.9682 421.291L40.1607 418.714H41.2926V431.89Z" fill="url(#paint6_linear_175_198)" fill-opacity="0.6"/>
<path d="M40.0349 442.257C41.5302 442.257 42.6622 442.888 43.4308 444.149C44.2134 445.396 44.6047 447.211 44.6047 449.594C44.6047 451.977 44.2134 453.798 43.4308 455.059C42.6622 456.32 41.5302 456.95 40.0349 456.95C38.5536 456.95 37.4216 456.32 36.639 455.059C35.8564 453.798 35.4651 451.977 35.4651 449.594C35.4651 447.224 35.8564 445.409 36.639 444.149C37.4216 442.888 38.5536 442.257 40.0349 442.257ZM36.9534 449.594C36.9534 451.284 37.1072 452.607 37.4146 453.563L42.0683 444.356C41.5791 443.705 40.9013 443.38 40.0349 443.38C39.0706 443.38 38.316 443.892 37.771 444.918C37.2259 445.929 36.9534 447.488 36.9534 449.594ZM40.0349 455.807C41.0131 455.807 41.7748 455.302 42.3198 454.29C42.8648 453.265 43.1373 451.699 43.1373 449.594C43.1373 447.806 42.9627 446.421 42.6133 445.437L37.9596 454.727C38.4627 455.447 39.1545 455.807 40.0349 455.807Z" fill="url(#paint7_linear_175_198)" fill-opacity="0.6"/>
<path d="M40.0349 466.008C41.5302 466.008 42.6622 466.639 43.4308 467.9C44.2134 469.147 44.6047 470.962 44.6047 473.345C44.6047 475.728 44.2134 477.549 43.4308 478.81C42.6622 480.071 41.5302 480.701 40.0349 480.701C38.5536 480.701 37.4216 480.071 36.639 478.81C35.8564 477.549 35.4651 475.728 35.4651 473.345C35.4651 470.975 35.8564 469.16 36.639 467.9C37.4216 466.639 38.5536 466.008 40.0349 466.008ZM36.9534 473.345C36.9534 475.035 37.1072 476.358 37.4146 477.314L42.0683 468.107C41.5791 467.456 40.9013 467.131 40.0349 467.131C39.0706 467.131 38.316 467.643 37.771 468.669C37.2259 469.68 36.9534 471.239 36.9534 473.345ZM40.0349 479.558C41.0131 479.558 41.7748 479.053 42.3198 478.041C42.8648 477.016 43.1373 475.451 43.1373 473.345C43.1373 471.557 42.9627 470.172 42.6133 469.188L37.9596 478.478C38.4627 479.198 39.1545 479.558 40.0349 479.558Z" fill="url(#paint8_linear_175_198)" fill-opacity="0.6"/>
<path d="M41.2926 503.143H44.3741V504.245H36.3874V503.143H39.9511V491.464L36.5551 493.48L35.9682 492.544L40.1607 489.967H41.2926V503.143Z" fill="url(#paint9_linear_175_198)" fill-opacity="0.6"/>
<path d="M40.0349 513.511C41.5302 513.511 42.6622 514.141 43.4308 515.402C44.2134 516.649 44.6047 518.464 44.6047 520.847C44.6047 523.23 44.2134 525.052 43.4308 526.312C42.6622 527.573 41.5302 528.204 40.0349 528.204C38.5536 528.204 37.4216 527.573 36.639 526.312C35.8564 525.052 35.4651 523.23 35.4651 520.847C35.4651 518.478 35.8564 516.663 36.639 515.402C37.4216 514.141 38.5536 513.511 40.0349 513.511ZM36.9534 520.847C36.9534 522.537 37.1072 523.86 37.4146 524.816L42.0683 515.61C41.5791 514.958 40.9013 514.633 40.0349 514.633C39.0706 514.633 38.316 515.145 37.771 516.171C37.2259 517.182 36.9534 518.741 36.9534 520.847ZM40.0349 527.061C41.0131 527.061 41.7748 526.555 42.3198 525.543C42.8648 524.518 43.1373 522.953 43.1373 520.847C43.1373 519.059 42.9627 517.674 42.6133 516.69L37.9596 525.98C38.4627 526.7 39.1545 527.061 40.0349 527.061Z" fill="url(#paint10_linear_175_198)" fill-opacity="0.6"/>
<path d="M41.2926 550.645H44.3741V551.747H36.3874V550.645H39.9511V538.966L36.5551 540.982L35.9682 540.046L40.1607 537.469H41.2926V550.645Z" fill="url(#paint11_linear_175_198)" fill-opacity="0.6"/>
<path d="M41.2926 574.396H44.3741V575.498H36.3874V574.396H39.9511V562.717L36.5551 564.733L35.9682 563.798L40.1607 561.221H41.2926V574.396Z" fill="url(#paint12_linear_175_198)" fill-opacity="0.6"/>
<path d="M78.9651 323.502C80.4604 323.502 81.5924 324.133 82.361 325.393C83.1436 326.64 83.5349 328.455 83.5349 330.838C83.5349 333.221 83.1436 335.043 82.361 336.304C81.5924 337.565 80.4604 338.195 78.9651 338.195C77.4838 338.195 76.3518 337.565 75.5692 336.304C74.7866 335.043 74.3953 333.221 74.3953 330.838C74.3953 328.469 74.7866 326.654 75.5692 325.393C76.3518 324.133 77.4838 323.502 78.9651 323.502ZM75.8836 330.838C75.8836 332.529 76.0374 333.852 76.3448 334.808L80.9985 325.601C80.5093 324.95 79.8315 324.624 78.9651 324.624C78.0008 324.624 77.2462 325.137 76.7012 326.162C76.1561 327.174 75.8836 328.732 75.8836 330.838ZM78.9651 337.052C79.9433 337.052 80.705 336.546 81.25 335.535C81.795 334.51 82.0675 332.944 82.0675 330.838C82.0675 329.051 81.8928 327.665 81.5435 326.682L76.8898 335.971C77.3929 336.692 78.0847 337.052 78.9651 337.052Z" fill="url(#paint13_linear_175_198)" fill-opacity="0.6"/>
<path d="M80.2228 360.637H83.3043V361.738H75.3176V360.637H78.8812V348.957L75.4853 350.973L74.8984 350.038L79.0909 347.461H80.2228V360.637Z" fill="url(#paint14_linear_175_198)" fill-opacity="0.6"/>
<path d="M78.9651 371.004C80.4604 371.004 81.5924 371.635 82.361 372.895C83.1436 374.142 83.5349 375.957 83.5349 378.34C83.5349 380.723 83.1436 382.545 82.361 383.806C81.5924 385.067 80.4604 385.697 78.9651 385.697C77.4838 385.697 76.3518 385.067 75.5692 383.806C74.7866 382.545 74.3953 380.723 74.3953 378.34C74.3953 375.971 74.7866 374.156 75.5692 372.895C76.3518 371.635 77.4838 371.004 78.9651 371.004ZM75.8836 378.34C75.8836 380.031 76.0374 381.354 76.3448 382.31L80.9985 373.103C80.5093 372.452 79.8315 372.126 78.9651 372.126C78.0008 372.126 77.2462 372.639 76.7012 373.664C76.1561 374.676 75.8836 376.234 75.8836 378.34ZM78.9651 384.554C79.9433 384.554 80.705 384.049 81.25 383.037C81.795 382.012 82.0675 380.446 82.0675 378.34C82.0675 376.553 81.8928 375.168 81.5435 374.184L76.8898 383.474C77.3929 384.194 78.0847 384.554 78.9651 384.554Z" fill="url(#paint15_linear_175_198)" fill-opacity="0.6"/>
<path d="M78.9651 394.755C80.4604 394.755 81.5924 395.386 82.361 396.646C83.1436 397.893 83.5349 399.708 83.5349 402.091C83.5349 404.474 83.1436 406.296 82.361 407.557C81.5924 408.818 80.4604 409.448 78.9651 409.448C77.4838 409.448 76.3518 408.818 75.5692 407.557C74.7866 406.296 74.3953 404.474 74.3953 402.091C74.3953 399.722 74.7866 397.907 75.5692 396.646C76.3518 395.386 77.4838 394.755 78.9651 394.755ZM75.8836 402.091C75.8836 403.782 76.0374 405.105 76.3448 406.061L80.9985 396.854C80.5093 396.203 79.8315 395.878 78.9651 395.878C78.0008 395.878 77.2462 396.39 76.7012 397.415C76.1561 398.427 75.8836 399.985 75.8836 402.091ZM78.9651 408.305C79.9433 408.305 80.705 407.8 81.25 406.788C81.795 405.763 82.0675 404.197 82.0675 402.091C82.0675 400.304 81.8928 398.919 81.5435 397.935L76.8898 407.225C77.3929 407.945 78.0847 408.305 78.9651 408.305Z" fill="url(#paint16_linear_175_198)" fill-opacity="0.6"/>
<path d="M80.2228 431.89H83.3043V432.992H75.3176V431.89H78.8812V420.21L75.4853 422.226L74.8984 421.291L79.0909 418.714H80.2228V431.89Z" fill="url(#paint17_linear_175_198)" fill-opacity="0.6"/>
<path d="M78.9651 442.257C80.4604 442.257 81.5924 442.888 82.361 444.149C83.1436 445.396 83.5349 447.211 83.5349 449.594C83.5349 451.977 83.1436 453.798 82.361 455.059C81.5924 456.32 80.4604 456.95 78.9651 456.95C77.4838 456.95 76.3518 456.32 75.5692 455.059C74.7866 453.798 74.3953 451.977 74.3953 449.594C74.3953 447.224 74.7866 445.409 75.5692 444.149C76.3518 442.888 77.4838 442.257 78.9651 442.257ZM75.8836 449.594C75.8836 451.284 76.0374 452.607 76.3448 453.563L80.9985 444.356C80.5093 443.705 79.8315 443.38 78.9651 443.38C78.0008 443.38 77.2462 443.892 76.7012 444.918C76.1561 445.929 75.8836 447.488 75.8836 449.594ZM78.9651 455.807C79.9433 455.807 80.705 455.302 81.25 454.29C81.795 453.265 82.0675 451.699 82.0675 449.594C82.0675 447.806 81.8928 446.421 81.5435 445.437L76.8898 454.727C77.3929 455.447 78.0847 455.807 78.9651 455.807Z" fill="url(#paint18_linear_175_198)" fill-opacity="0.6"/>
<path d="M80.2228 479.392H83.3043V480.494H75.3176V479.392H78.8812V467.713L75.4853 469.728L74.8984 468.793L79.0909 466.216H80.2228V479.392Z" fill="url(#paint19_linear_175_198)" fill-opacity="0.6"/>
<path d="M78.9651 489.76C80.4604 489.76 81.5924 490.39 82.361 491.651C83.1436 492.898 83.5349 494.713 83.5349 497.096C83.5349 499.479 83.1436 501.301 82.361 502.561C81.5924 503.822 80.4604 504.453 78.9651 504.453C77.4838 504.453 76.3518 503.822 75.5692 502.561C74.7866 501.301 74.3953 499.479 74.3953 497.096C74.3953 494.726 74.7866 492.911 75.5692 491.651C76.3518 490.39 77.4838 489.76 78.9651 489.76ZM75.8836 497.096C75.8836 498.786 76.0374 500.109 76.3448 501.065L80.9985 491.859C80.5093 491.207 79.8315 490.882 78.9651 490.882C78.0008 490.882 77.2462 491.394 76.7012 492.42C76.1561 493.431 75.8836 494.99 75.8836 497.096ZM78.9651 503.31C79.9433 503.31 80.705 502.804 81.25 501.792C81.795 500.767 82.0675 499.202 82.0675 497.096C82.0675 495.308 81.8928 493.923 81.5435 492.939L76.8898 502.229C77.3929 502.949 78.0847 503.31 78.9651 503.31Z" fill="url(#paint20_linear_175_198)" fill-opacity="0.6"/>
<path d="M78.9651 513.511C80.4604 513.511 81.5924 514.141 82.361 515.402C83.1436 516.649 83.5349 518.464 83.5349 520.847C83.5349 523.23 83.1436 525.052 82.361 526.312C81.5924 527.573 80.4604 528.204 78.9651 528.204C77.4838 528.204 76.3518 527.573 75.5692 526.312C74.7866 525.052 74.3953 523.23 74.3953 520.847C74.3953 518.478 74.7866 516.663 75.5692 515.402C76.3518 514.141 77.4838 513.511 78.9651 513.511ZM75.8836 520.847C75.8836 522.537 76.0374 523.86 76.3448 524.816L80.9985 515.61C80.5093 514.958 79.8315 514.633 78.9651 514.633C78.0008 514.633 77.2462 515.145 76.7012 516.171C76.1561 517.182 75.8836 518.741 75.8836 520.847ZM78.9651 527.061C79.9433 527.061 80.705 526.555 81.25 525.543C81.795 524.518 82.0675 522.953 82.0675 520.847C82.0675 519.059 81.8928 517.674 81.5435 516.69L76.8898 525.98C77.3929 526.7 78.0847 527.061 78.9651 527.061Z" fill="url(#paint21_linear_175_198)" fill-opacity="0.6"/>
<path d="M80.2228 550.645H83.3043V551.747H75.3176V550.645H78.8812V538.966L75.4853 540.982L74.8984 540.046L79.0909 537.469H80.2228V550.645Z" fill="url(#paint22_linear_175_198)" fill-opacity="0.6"/>
<path d="M78.9651 561.013C80.4604 561.013 81.5924 561.643 82.361 562.904C83.1436 564.151 83.5349 565.966 83.5349 568.349C83.5349 570.732 83.1436 572.554 82.361 573.815C81.5924 575.075 80.4604 575.706 78.9651 575.706C77.4838 575.706 76.3518 575.075 75.5692 573.815C74.7866 572.554 74.3953 570.732 74.3953 568.349C74.3953 565.98 74.7866 564.165 75.5692 562.904C76.3518 561.643 77.4838 561.013 78.9651 561.013ZM75.8836 568.349C75.8836 570.039 76.0374 571.362 76.3448 572.318L80.9985 563.112C80.5093 562.461 79.8315 562.135 78.9651 562.135C78.0008 562.135 77.2462 562.648 76.7012 563.673C76.1561 564.684 75.8836 566.243 75.8836 568.349ZM78.9651 574.563C79.9433 574.563 80.705 574.057 81.25 573.046C81.795 572.02 82.0675 570.455 82.0675 568.349C82.0675 566.562 81.8928 565.176 81.5435 564.192L76.8898 573.482C77.3929 574.202 78.0847 574.563 78.9651 574.563Z" fill="url(#paint23_linear_175_198)" fill-opacity="0.6"/>
<path d="M80.2228 598.148H83.3043V599.249H75.3176V598.148H78.8812V586.468L75.4853 588.484L74.8984 587.549L79.0909 584.972H80.2228V598.148Z" fill="url(#paint24_linear_175_198)" fill-opacity="0.6"/>
<path d="M80.2228 621.899H83.3043V623H75.3176V621.899H78.8812V610.219L75.4853 612.235L74.8984 611.3L79.0909 608.723H80.2228V621.899Z" fill="url(#paint25_linear_175_198)" fill-opacity="0.6"/>
<path d="M20.5698 347.253C22.0651 347.253 23.1971 347.884 23.9657 349.144C24.7483 350.391 25.1396 352.206 25.1396 354.589C25.1396 356.972 24.7483 358.794 23.9657 360.055C23.1971 361.316 22.0651 361.946 20.5698 361.946C19.0885 361.946 17.9565 361.316 17.1739 360.055C16.3913 358.794 16 356.972 16 354.589C16 352.22 16.3913 350.405 17.1739 349.144C17.9565 347.884 19.0885 347.253 20.5698 347.253ZM17.4883 354.589C17.4883 356.28 17.6421 357.603 17.9495 358.559L22.6032 349.352C22.114 348.701 21.4363 348.375 20.5698 348.375C19.6055 348.375 18.8509 348.888 18.3059 349.913C17.7608 350.925 17.4883 352.483 17.4883 354.589ZM20.5698 360.803C21.5481 360.803 22.3097 360.297 22.8547 359.286C23.3997 358.261 23.6722 356.695 23.6722 354.589C23.6722 352.802 23.4976 351.417 23.1482 350.433L18.4945 359.722C18.9976 360.443 19.6894 360.803 20.5698 360.803Z" fill="url(#paint26_linear_175_198)" fill-opacity="0.6"/>
<path d="M20.5698 371.004C22.0651 371.004 23.1971 371.635 23.9657 372.895C24.7483 374.142 25.1396 375.957 25.1396 378.34C25.1396 380.723 24.7483 382.545 23.9657 383.806C23.1971 385.067 22.0651 385.697 20.5698 385.697C19.0885 385.697 17.9565 385.067 17.1739 383.806C16.3913 382.545 16 380.723 16 378.34C16 375.971 16.3913 374.156 17.1739 372.895C17.9565 371.635 19.0885 371.004 20.5698 371.004ZM17.4883 378.34C17.4883 380.031 17.6421 381.354 17.9495 382.31L22.6032 373.103C22.114 372.452 21.4363 372.126 20.5698 372.126C19.6055 372.126 18.8509 372.639 18.3059 373.664C17.7608 374.676 17.4883 376.234 17.4883 378.34ZM20.5698 384.554C21.5481 384.554 22.3097 384.049 22.8547 383.037C23.3997 382.012 23.6722 380.446 23.6722 378.34C23.6722 376.553 23.4976 375.168 23.1482 374.184L18.4945 383.474C18.9976 384.194 19.6894 384.554 20.5698 384.554Z" fill="url(#paint27_linear_175_198)" fill-opacity="0.6"/>
<path d="M21.8276 408.139H24.909V409.24H16.9223V408.139H20.486V396.459L17.09 398.475L16.5031 397.54L20.6956 394.963H21.8276V408.139Z" fill="url(#paint28_linear_175_198)" fill-opacity="0.6"/>
<path d="M20.5698 418.506C22.0651 418.506 23.1971 419.137 23.9657 420.398C24.7483 421.644 25.1396 423.459 25.1396 425.842C25.1396 428.225 24.7483 430.047 23.9657 431.308C23.1971 432.569 22.0651 433.199 20.5698 433.199C19.0885 433.199 17.9565 432.569 17.1739 431.308C16.3913 430.047 16 428.225 16 425.842C16 423.473 16.3913 421.658 17.1739 420.398C17.9565 419.137 19.0885 418.506 20.5698 418.506ZM17.4883 425.842C17.4883 427.533 17.6421 428.856 17.9495 429.812L22.6032 420.605C22.114 419.954 21.4363 419.629 20.5698 419.629C19.6055 419.629 18.8509 420.141 18.3059 421.166C17.7608 422.178 17.4883 423.737 17.4883 425.842ZM20.5698 432.056C21.5481 432.056 22.3097 431.551 22.8547 430.539C23.3997 429.514 23.6722 427.948 23.6722 425.842C23.6722 424.055 23.4976 422.67 23.1482 421.686L18.4945 430.976C18.9976 431.696 19.6894 432.056 20.5698 432.056Z" fill="url(#paint29_linear_175_198)" fill-opacity="0.6"/>
<path d="M21.8276 455.641H24.909V456.743H16.9223V455.641H20.486V443.962L17.09 445.977L16.5031 445.042L20.6956 442.465H21.8276V455.641Z" fill="url(#paint30_linear_175_198)" fill-opacity="0.6"/>
<path d="M21.8276 479.392H24.909V480.494H16.9223V479.392H20.486V467.713L17.09 469.728L16.5031 468.793L20.6956 466.216H21.8276V479.392Z" fill="url(#paint31_linear_175_198)" fill-opacity="0.6"/>
<path d="M60.7577 313.135H63.8392V314.236H55.8525V313.135H59.4162V301.455L56.0202 303.471L55.4333 302.536L59.6258 299.959H60.7577V313.135Z" fill="url(#paint32_linear_175_198)" fill-opacity="0.6"/>
<path d="M59.5 323.502C60.9953 323.502 62.1273 324.133 62.8959 325.393C63.6785 326.64 64.0698 328.455 64.0698 330.838C64.0698 333.221 63.6785 335.043 62.8959 336.304C62.1273 337.565 60.9953 338.195 59.5 338.195C58.0187 338.195 56.8867 337.565 56.1041 336.304C55.3215 335.043 54.9302 333.221 54.9302 330.838C54.9302 328.469 55.3215 326.654 56.1041 325.393C56.8867 324.133 58.0187 323.502 59.5 323.502ZM56.4185 330.838C56.4185 332.529 56.5723 333.852 56.8797 334.808L61.5334 325.601C61.0442 324.95 60.3664 324.624 59.5 324.624C58.5357 324.624 57.7811 325.137 57.2361 326.162C56.691 327.174 56.4185 328.732 56.4185 330.838ZM59.5 337.052C60.4782 337.052 61.2399 336.546 61.7849 335.535C62.3299 334.51 62.6024 332.944 62.6024 330.838C62.6024 329.051 62.4277 327.665 62.0784 326.682L57.4247 335.971C57.9278 336.692 58.6196 337.052 59.5 337.052Z" fill="url(#paint33_linear_175_198)" fill-opacity="0.6"/>
<path d="M60.7577 360.637H63.8392V361.738H55.8525V360.637H59.4162V348.957L56.0202 350.973L55.4333 350.038L59.6258 347.461H60.7577V360.637Z" fill="url(#paint34_linear_175_198)" fill-opacity="0.6"/>
<path d="M60.7577 384.388H63.8392V385.489H55.8525V384.388H59.4162V372.708L56.0202 374.724L55.4333 373.789L59.6258 371.212H60.7577V384.388Z" fill="url(#paint35_linear_175_198)" fill-opacity="0.6"/>
<path d="M59.5 394.755C60.9953 394.755 62.1273 395.386 62.8959 396.646C63.6785 397.893 64.0698 399.708 64.0698 402.091C64.0698 404.474 63.6785 406.296 62.8959 407.557C62.1273 408.818 60.9953 409.448 59.5 409.448C58.0187 409.448 56.8867 408.818 56.1041 407.557C55.3215 406.296 54.9302 404.474 54.9302 402.091C54.9302 399.722 55.3215 397.907 56.1041 396.646C56.8867 395.386 58.0187 394.755 59.5 394.755ZM56.4185 402.091C56.4185 403.782 56.5723 405.105 56.8797 406.061L61.5334 396.854C61.0442 396.203 60.3664 395.878 59.5 395.878C58.5357 395.878 57.7811 396.39 57.2361 397.415C56.691 398.427 56.4185 399.985 56.4185 402.091ZM59.5 408.305C60.4782 408.305 61.2399 407.8 61.7849 406.788C62.3299 405.763 62.6024 404.197 62.6024 402.091C62.6024 400.304 62.4277 398.919 62.0784 397.935L57.4247 407.225C57.9278 407.945 58.6196 408.305 59.5 408.305Z" fill="url(#paint36_linear_175_198)" fill-opacity="0.6"/>
<path d="M60.7577 431.89H63.8392V432.992H55.8525V431.89H59.4162V420.21L56.0202 422.226L55.4333 421.291L59.6258 418.714H60.7577V431.89Z" fill="url(#paint37_linear_175_198)" fill-opacity="0.6"/>
<path d="M60.7577 455.641H63.8392V456.743H55.8525V455.641H59.4162V443.962L56.0202 445.977L55.4333 445.042L59.6258 442.465H60.7577V455.641Z" fill="url(#paint38_linear_175_198)" fill-opacity="0.6"/>
<path d="M59.5 466.008C60.9953 466.008 62.1273 466.639 62.8959 467.9C63.6785 469.147 64.0698 470.962 64.0698 473.345C64.0698 475.728 63.6785 477.549 62.8959 478.81C62.1273 480.071 60.9953 480.701 59.5 480.701C58.0187 480.701 56.8867 480.071 56.1041 478.81C55.3215 477.549 54.9302 475.728 54.9302 473.345C54.9302 470.975 55.3215 469.16 56.1041 467.9C56.8867 466.639 58.0187 466.008 59.5 466.008ZM56.4185 473.345C56.4185 475.035 56.5723 476.358 56.8797 477.314L61.5334 468.107C61.0442 467.456 60.3664 467.131 59.5 467.131C58.5357 467.131 57.7811 467.643 57.2361 468.669C56.691 469.68 56.4185 471.239 56.4185 473.345ZM59.5 479.558C60.4782 479.558 61.2399 479.053 61.7849 478.041C62.3299 477.016 62.6024 475.451 62.6024 473.345C62.6024 471.557 62.4277 470.172 62.0784 469.188L57.4247 478.478C57.9278 479.198 58.6196 479.558 59.5 479.558Z" fill="url(#paint39_linear_175_198)" fill-opacity="0.6"/>
<path d="M60.7577 503.143H63.8392V504.245H55.8525V503.143H59.4162V491.464L56.0202 493.48L55.4333 492.544L59.6258 489.967H60.7577V503.143Z" fill="url(#paint40_linear_175_198)" fill-opacity="0.6"/>
<path d="M59.5 513.511C60.9953 513.511 62.1273 514.141 62.8959 515.402C63.6785 516.649 64.0698 518.464 64.0698 520.847C64.0698 523.23 63.6785 525.052 62.8959 526.312C62.1273 527.573 60.9953 528.204 59.5 528.204C58.0187 528.204 56.8867 527.573 56.1041 526.312C55.3215 525.052 54.9302 523.23 54.9302 520.847C54.9302 518.478 55.3215 516.663 56.1041 515.402C56.8867 514.141 58.0187 513.511 59.5 513.511ZM56.4185 520.847C56.4185 522.537 56.5723 523.86 56.8797 524.816L61.5334 515.61C61.0442 514.958 60.3664 514.633 59.5 514.633C58.5357 514.633 57.7811 515.145 57.2361 516.171C56.691 517.182 56.4185 518.741 56.4185 520.847ZM59.5 527.061C60.4782 527.061 61.2399 526.555 61.7849 525.543C62.3299 524.518 62.6024 522.953 62.6024 520.847C62.6024 519.059 62.4277 517.674 62.0784 516.69L57.4247 525.98C57.9278 526.7 58.6196 527.061 59.5 527.061Z" fill="url(#paint41_linear_175_198)" fill-opacity="0.6"/>
<path d="M98.4302 299.751C99.9255 299.751 101.057 300.381 101.826 301.642C102.609 302.889 103 304.704 103 307.087C103 309.47 102.609 311.292 101.826 312.553C101.057 313.814 99.9255 314.444 98.4302 314.444C96.9489 314.444 95.8169 313.814 95.0343 312.553C94.2517 311.292 93.8604 309.47 93.8604 307.087C93.8604 304.718 94.2517 302.903 95.0343 301.642C95.8169 300.381 96.9489 299.751 98.4302 299.751ZM95.3487 307.087C95.3487 308.777 95.5024 310.101 95.8099 311.057L100.464 301.85C99.9744 301.199 99.2966 300.873 98.4302 300.873C97.4659 300.873 96.7113 301.386 96.1663 302.411C95.6212 303.423 95.3487 304.981 95.3487 307.087ZM98.4302 313.301C99.4084 313.301 100.17 312.795 100.715 311.784C101.26 310.759 101.533 309.193 101.533 307.087C101.533 305.3 101.358 303.914 101.009 302.931L96.3549 312.22C96.858 312.941 97.5498 313.301 98.4302 313.301Z" fill="url(#paint42_linear_175_198)" fill-opacity="0.6"/>
<path d="M99.6879 336.886H102.769V337.987H94.7827V336.886H98.3463V325.206L94.9504 327.222L94.3635 326.287L98.556 323.71H99.6879V336.886Z" fill="url(#paint43_linear_175_198)" fill-opacity="0.6"/>
<path d="M99.6879 360.637H102.769V361.738H94.7827V360.637H98.3463V348.957L94.9504 350.973L94.3635 350.038L98.556 347.461H99.6879V360.637Z" fill="url(#paint44_linear_175_198)" fill-opacity="0.6"/>
<path d="M98.4302 371.004C99.9255 371.004 101.057 371.635 101.826 372.895C102.609 374.142 103 375.957 103 378.34C103 380.723 102.609 382.545 101.826 383.806C101.057 385.067 99.9255 385.697 98.4302 385.697C96.9489 385.697 95.8169 385.067 95.0343 383.806C94.2517 382.545 93.8604 380.723 93.8604 378.34C93.8604 375.971 94.2517 374.156 95.0343 372.895C95.8169 371.635 96.9489 371.004 98.4302 371.004ZM95.3487 378.34C95.3487 380.031 95.5024 381.354 95.8099 382.31L100.464 373.103C99.9744 372.452 99.2966 372.126 98.4302 372.126C97.4659 372.126 96.7113 372.639 96.1663 373.664C95.6212 374.676 95.3487 376.234 95.3487 378.34ZM98.4302 384.554C99.4084 384.554 100.17 384.049 100.715 383.037C101.26 382.012 101.533 380.446 101.533 378.34C101.533 376.553 101.358 375.168 101.009 374.184L96.3549 383.474C96.858 384.194 97.5498 384.554 98.4302 384.554Z" fill="url(#paint45_linear_175_198)" fill-opacity="0.6"/>
<path d="M98.4302 394.755C99.9255 394.755 101.057 395.386 101.826 396.646C102.609 397.893 103 399.708 103 402.091C103 404.474 102.609 406.296 101.826 407.557C101.057 408.818 99.9255 409.448 98.4302 409.448C96.9489 409.448 95.8169 408.818 95.0343 407.557C94.2517 406.296 93.8604 404.474 93.8604 402.091C93.8604 399.722 94.2517 397.907 95.0343 396.646C95.8169 395.386 96.9489 394.755 98.4302 394.755ZM95.3487 402.091C95.3487 403.782 95.5024 405.105 95.8099 406.061L100.464 396.854C99.9744 396.203 99.2966 395.878 98.4302 395.878C97.4659 395.878 96.7113 396.39 96.1663 397.415C95.6212 398.427 95.3487 399.985 95.3487 402.091ZM98.4302 408.305C99.4084 408.305 100.17 407.8 100.715 406.788C101.26 405.763 101.533 404.197 101.533 402.091C101.533 400.304 101.358 398.919 101.009 397.935L96.3549 407.225C96.858 407.945 97.5498 408.305 98.4302 408.305Z" fill="url(#paint46_linear_175_198)" fill-opacity="0.6"/>
<g opacity="0.6">
<path d="M926.93 -24C928.356 -24 929.436 -23.395 930.17 -22.1851C930.916 -20.9885 931.29 -19.2468 931.29 -16.9599C931.29 -14.673 930.916 -12.9246 930.17 -11.7147C929.436 -10.5048 928.356 -9.8998 926.93 -9.8998C925.517 -9.8998 924.437 -10.5048 923.69 -11.7147C922.943 -12.9246 922.57 -14.673 922.57 -16.9599C922.57 -19.2335 922.943 -20.9752 923.69 -22.1851C924.437 -23.395 925.517 -24 926.93 -24ZM923.99 -16.9599C923.99 -15.3378 924.137 -14.068 924.43 -13.1506L928.87 -21.9857C928.403 -22.6106 927.756 -22.923 926.93 -22.923C926.01 -22.923 925.29 -22.4311 924.77 -21.4472C924.25 -20.4766 923.99 -18.9808 923.99 -16.9599ZM926.93 -10.9967C927.863 -10.9967 928.59 -11.482 929.11 -12.4526C929.63 -13.4365 929.89 -14.9389 929.89 -16.9599C929.89 -18.675 929.723 -20.0046 929.39 -20.9486L924.95 -12.0338C925.43 -11.3424 926.09 -10.9967 926.93 -10.9967Z" fill="url(#paint47_linear_175_198)"/>
<path d="M928.13 11.6365H931.07V12.6936H923.45V11.6365H926.85V0.428188L923.61 2.36273L923.05 1.46526L927.05 -1.00776H928.13V11.6365Z" fill="url(#paint48_linear_175_198)"/>
<path d="M926.93 21.5856C928.356 21.5856 929.436 22.1906 930.17 23.4005C930.916 24.5971 931.29 26.3389 931.29 28.6257C931.29 30.9126 930.916 32.661 930.17 33.8709C929.436 35.0808 928.356 35.6858 926.93 35.6858C925.517 35.6858 924.437 35.0808 923.69 33.8709C922.943 32.661 922.57 30.9126 922.57 28.6257C922.57 26.3522 922.943 24.6104 923.69 23.4005C924.437 22.1906 925.517 21.5856 926.93 21.5856ZM923.99 28.6257C923.99 30.2478 924.137 31.5176 924.43 32.435L928.87 23.5999C928.403 22.975 927.756 22.6626 926.93 22.6626C926.01 22.6626 925.29 23.1545 924.77 24.1384C924.25 25.109 923.99 26.6048 923.99 28.6257ZM926.93 34.5889C927.863 34.5889 928.59 34.1036 929.11 33.133C929.63 32.1491 929.89 30.6467 929.89 28.6257C929.89 26.9106 929.723 25.581 929.39 24.637L924.95 33.5518C925.43 34.2432 926.09 34.5889 926.93 34.5889Z" fill="url(#paint49_linear_175_198)"/>
<path d="M928.13 57.2221H931.07V58.2792H923.45V57.2221H926.85V46.0138L923.61 47.9483L923.05 47.0509L927.05 44.5778H928.13V57.2221Z" fill="url(#paint50_linear_175_198)"/>
<path d="M928.13 80.015H931.07V81.072H923.45V80.015H926.85V68.8066L923.61 70.7411L923.05 69.8437L927.05 67.3706H928.13V80.015Z" fill="url(#paint51_linear_175_198)"/>
<path d="M926.93 89.964C928.356 89.964 929.436 90.569 930.17 91.7789C930.916 92.9755 931.29 94.7173 931.29 97.0041C931.29 99.291 930.916 101.039 930.17 102.249C929.436 103.459 928.356 104.064 926.93 104.064C925.517 104.064 924.437 103.459 923.69 102.249C922.943 101.039 922.57 99.291 922.57 97.0041C922.57 94.7306 922.943 92.9888 923.69 91.7789C924.437 90.569 925.517 89.964 926.93 89.964ZM923.99 97.0041C923.99 98.6262 924.137 99.896 924.43 100.813L928.87 91.9783C928.403 91.3534 927.756 91.041 926.93 91.041C926.01 91.041 925.29 91.5329 924.77 92.5168C924.25 93.4874 923.99 94.9832 923.99 97.0041ZM926.93 102.967C927.863 102.967 928.59 102.482 929.11 101.511C929.63 100.528 929.89 99.0251 929.89 97.0041C929.89 95.289 929.723 93.9594 929.39 93.0154L924.95 101.93C925.43 102.622 926.09 102.967 926.93 102.967Z" fill="url(#paint52_linear_175_198)"/>
<path d="M928.13 125.601H931.07V126.658H923.45V125.601H926.85V114.392L923.61 116.327L923.05 115.429L927.05 112.956H928.13V125.601Z" fill="url(#paint53_linear_175_198)"/>
<path d="M926.93 135.55C928.356 135.55 929.436 136.155 930.17 137.365C930.916 138.561 931.29 140.303 931.29 142.59C931.29 144.877 930.916 146.625 930.17 147.835C929.436 149.045 928.356 149.65 926.93 149.65C925.517 149.65 924.437 149.045 923.69 147.835C922.943 146.625 922.57 144.877 922.57 142.59C922.57 140.316 922.943 138.574 923.69 137.365C924.437 136.155 925.517 135.55 926.93 135.55ZM923.99 142.59C923.99 144.212 924.137 145.482 924.43 146.399L928.87 137.564C928.403 136.939 927.756 136.627 926.93 136.627C926.01 136.627 925.29 137.119 924.77 138.102C924.25 139.073 923.99 140.569 923.99 142.59ZM926.93 148.553C927.863 148.553 928.59 148.068 929.11 147.097C929.63 146.113 929.89 144.611 929.89 142.59C929.89 140.875 929.723 139.545 929.39 138.601L924.95 147.516C925.43 148.207 926.09 148.553 926.93 148.553Z" fill="url(#paint54_linear_175_198)"/>
<path d="M926.93 158.342C928.356 158.342 929.436 158.947 930.17 160.157C930.916 161.354 931.29 163.096 931.29 165.383C931.29 167.669 930.916 169.418 930.17 170.628C929.436 171.838 928.356 172.443 926.93 172.443C925.517 172.443 924.437 171.838 923.69 170.628C922.943 169.418 922.57 167.669 922.57 165.383C922.57 163.109 922.943 161.367 923.69 160.157C924.437 158.947 925.517 158.342 926.93 158.342ZM923.99 165.383C923.99 167.005 924.137 168.274 924.43 169.192L928.87 160.357C928.403 159.732 927.756 159.419 926.93 159.419C926.01 159.419 925.29 159.911 924.77 160.895C924.25 161.866 923.99 163.362 923.99 165.383ZM926.93 171.346C927.863 171.346 928.59 170.86 929.11 169.89C929.63 168.906 929.89 167.404 929.89 165.383C929.89 163.667 929.723 162.338 929.39 161.394L924.95 170.309C925.43 171 926.09 171.346 926.93 171.346Z" fill="url(#paint55_linear_175_198)"/>
<path d="M928.13 193.979H931.07V195.036H923.45V193.979H926.85V182.771L923.61 184.705L923.05 183.808L927.05 181.335H928.13V193.979Z" fill="url(#paint56_linear_175_198)"/>
<path d="M926.93 203.928C928.356 203.928 929.436 204.533 930.17 205.743C930.916 206.94 931.29 208.681 931.29 210.968C931.29 213.255 930.916 215.003 930.17 216.213C929.436 217.423 928.356 218.028 926.93 218.028C925.517 218.028 924.437 217.423 923.69 216.213C922.943 215.003 922.57 213.255 922.57 210.968C922.57 208.695 922.943 206.953 923.69 205.743C924.437 204.533 925.517 203.928 926.93 203.928ZM923.99 210.968C923.99 212.59 924.137 213.86 924.43 214.777L928.87 205.942C928.403 205.317 927.756 205.005 926.93 205.005C926.01 205.005 925.29 205.497 924.77 206.481C924.25 207.451 923.99 208.947 923.99 210.968ZM926.93 216.931C927.863 216.931 928.59 216.446 929.11 215.475C929.63 214.492 929.89 212.989 929.89 210.968C929.89 209.253 929.723 207.923 929.39 206.979L924.95 215.894C925.43 216.586 926.09 216.931 926.93 216.931Z" fill="url(#paint57_linear_175_198)"/>
<path d="M928.13 239.565H931.07V240.622H923.45V239.565H926.85V228.356L923.61 230.291L923.05 229.393L927.05 226.92H928.13V239.565Z" fill="url(#paint58_linear_175_198)"/>
<path d="M928.13 262.357H931.07V263.414H923.45V262.357H926.85V251.149L923.61 253.084L923.05 252.186L927.05 249.713H928.13V262.357Z" fill="url(#paint59_linear_175_198)"/>
<path d="M964.07 21.5856C965.497 21.5856 966.577 22.1906 967.31 23.4005C968.057 24.5971 968.43 26.3389 968.43 28.6257C968.43 30.9126 968.057 32.661 967.31 33.8709C966.577 35.0808 965.497 35.6858 964.07 35.6858C962.657 35.6858 961.577 35.0808 960.83 33.8709C960.084 32.661 959.71 30.9126 959.71 28.6257C959.71 26.3522 960.084 24.6104 960.83 23.4005C961.577 22.1906 962.657 21.5856 964.07 21.5856ZM961.13 28.6257C961.13 30.2478 961.277 31.5176 961.57 32.435L966.01 23.5999C965.543 22.975 964.897 22.6626 964.07 22.6626C963.15 22.6626 962.43 23.1545 961.91 24.1384C961.39 25.109 961.13 26.6048 961.13 28.6257ZM964.07 34.5889C965.003 34.5889 965.73 34.1036 966.25 33.133C966.77 32.1491 967.03 30.6467 967.03 28.6257C967.03 26.9106 966.863 25.581 966.53 24.637L962.09 33.5518C962.57 34.2432 963.23 34.5889 964.07 34.5889Z" fill="url(#paint60_linear_175_198)"/>
<path d="M965.27 57.2221H968.21V58.2792H960.59V57.2221H963.99V46.0138L960.75 47.9483L960.19 47.0509L964.19 44.5778H965.27V57.2221Z" fill="url(#paint61_linear_175_198)"/>
<path d="M964.07 67.1712C965.497 67.1712 966.577 67.7762 967.31 68.9861C968.057 70.1827 968.43 71.9245 968.43 74.2113C968.43 76.4982 968.057 78.2466 967.31 79.4565C966.577 80.6664 965.497 81.2714 964.07 81.2714C962.657 81.2714 961.577 80.6664 960.83 79.4565C960.084 78.2466 959.71 76.4982 959.71 74.2113C959.71 71.9378 960.084 70.196 960.83 68.9861C961.577 67.7762 962.657 67.1712 964.07 67.1712ZM961.13 74.2113C961.13 75.8334 961.277 77.1032 961.57 78.0206L966.01 69.1855C965.543 68.5606 964.897 68.2482 964.07 68.2482C963.15 68.2482 962.43 68.7401 961.91 69.724C961.39 70.6946 961.13 72.1904 961.13 74.2113ZM964.07 80.1745C965.003 80.1745 965.73 79.6892 966.25 78.7186C966.77 77.7347 967.03 76.2323 967.03 74.2113C967.03 72.4962 966.863 71.1666 966.53 70.2226L962.09 79.1374C962.57 79.8288 963.23 80.1745 964.07 80.1745Z" fill="url(#paint62_linear_175_198)"/>
<path d="M964.07 89.964C965.497 89.964 966.577 90.569 967.31 91.7789C968.057 92.9755 968.43 94.7173 968.43 97.0041C968.43 99.291 968.057 101.039 967.31 102.249C966.577 103.459 965.497 104.064 964.07 104.064C962.657 104.064 961.577 103.459 960.83 102.249C960.084 101.039 959.71 99.291 959.71 97.0041C959.71 94.7306 960.084 92.9888 960.83 91.7789C961.577 90.569 962.657 89.964 964.07 89.964ZM961.13 97.0041C961.13 98.6262 961.277 99.896 961.57 100.813L966.01 91.9783C965.543 91.3534 964.897 91.041 964.07 91.041C963.15 91.041 962.43 91.5329 961.91 92.5168C961.39 93.4874 961.13 94.9832 961.13 97.0041ZM964.07 102.967C965.003 102.967 965.73 102.482 966.25 101.511C966.77 100.528 967.03 99.0251 967.03 97.0041C967.03 95.289 966.863 93.9594 966.53 93.0154L962.09 101.93C962.57 102.622 963.23 102.967 964.07 102.967Z" fill="url(#paint63_linear_175_198)"/>
<path d="M965.27 125.601H968.21V126.658H960.59V125.601H963.99V114.392L960.75 116.327L960.19 115.429L964.19 112.956H965.27V125.601Z" fill="url(#paint64_linear_175_198)"/>
<path d="M964.07 135.55C965.497 135.55 966.577 136.155 967.31 137.365C968.057 138.561 968.43 140.303 968.43 142.59C968.43 144.877 968.057 146.625 967.31 147.835C966.577 149.045 965.497 149.65 964.07 149.65C962.657 149.65 961.577 149.045 960.83 147.835C960.084 146.625 959.71 144.877 959.71 142.59C959.71 140.316 960.084 138.574 960.83 137.365C961.577 136.155 962.657 135.55 964.07 135.55ZM961.13 142.59C961.13 144.212 961.277 145.482 961.57 146.399L966.01 137.564C965.543 136.939 964.897 136.627 964.07 136.627C963.15 136.627 962.43 137.119 961.91 138.102C961.39 139.073 961.13 140.569 961.13 142.59ZM964.07 148.553C965.003 148.553 965.73 148.068 966.25 147.097C966.77 146.113 967.03 144.611 967.03 142.59C967.03 140.875 966.863 139.545 966.53 138.601L962.09 147.516C962.57 148.207 963.23 148.553 964.07 148.553Z" fill="url(#paint65_linear_175_198)"/>
<path d="M965.27 171.186H968.21V172.243H960.59V171.186H963.99V159.978L960.75 161.912L960.19 161.015L964.19 158.542H965.27V171.186Z" fill="url(#paint66_linear_175_198)"/>
<path d="M964.07 181.135C965.497 181.135 966.577 181.74 967.31 182.95C968.057 184.147 968.43 185.888 968.43 188.175C968.43 190.462 968.057 192.211 967.31 193.421C966.577 194.63 965.497 195.235 964.07 195.235C962.657 195.235 961.577 194.63 960.83 193.421C960.084 192.211 959.71 190.462 959.71 188.175C959.71 185.902 960.084 184.16 960.83 182.95C961.577 181.74 962.657 181.135 964.07 181.135ZM961.13 188.175C961.13 189.797 961.277 191.067 961.57 191.985L966.01 183.15C965.543 182.525 964.897 182.212 964.07 182.212C963.15 182.212 962.43 182.704 961.91 183.688C961.39 184.659 961.13 186.154 961.13 188.175ZM964.07 194.139C965.003 194.139 965.73 193.653 966.25 192.683C966.77 191.699 967.03 190.196 967.03 188.175C967.03 186.46 966.863 185.131 966.53 184.187L962.09 193.101C962.57 193.793 963.23 194.139 964.07 194.139Z" fill="url(#paint67_linear_175_198)"/>
<path d="M964.07 203.928C965.497 203.928 966.577 204.533 967.31 205.743C968.057 206.94 968.43 208.681 968.43 210.968C968.43 213.255 968.057 215.003 967.31 216.213C966.577 217.423 965.497 218.028 964.07 218.028C962.657 218.028 961.577 217.423 960.83 216.213C960.084 215.003 959.71 213.255 959.71 210.968C959.71 208.695 960.084 206.953 960.83 205.743C961.577 204.533 962.657 203.928 964.07 203.928ZM961.13 210.968C961.13 212.59 961.277 213.86 961.57 214.777L966.01 205.942C965.543 205.317 964.897 205.005 964.07 205.005C963.15 205.005 962.43 205.497 961.91 206.481C961.39 207.451 961.13 208.947 961.13 210.968ZM964.07 216.931C965.003 216.931 965.73 216.446 966.25 215.475C966.77 214.492 967.03 212.989 967.03 210.968C967.03 209.253 966.863 207.923 966.53 206.979L962.09 215.894C962.57 216.586 963.23 216.931 964.07 216.931Z" fill="url(#paint68_linear_175_198)"/>
<path d="M965.27 239.565H968.21V240.622H960.59V239.565H963.99V228.356L960.75 230.291L960.19 229.393L964.19 226.92H965.27V239.565Z" fill="url(#paint69_linear_175_198)"/>
<path d="M964.07 249.514C965.497 249.514 966.577 250.119 967.31 251.329C968.057 252.525 968.43 254.267 968.43 256.554C968.43 258.841 968.057 260.589 967.31 261.799C966.577 263.009 965.497 263.614 964.07 263.614C962.657 263.614 961.577 263.009 960.83 261.799C960.084 260.589 959.71 258.841 959.71 256.554C959.71 254.28 960.084 252.538 960.83 251.329C961.577 250.119 962.657 249.514 964.07 249.514ZM961.13 256.554C961.13 258.176 961.277 259.446 961.57 260.363L966.01 251.528C965.543 250.903 964.897 250.591 964.07 250.591C963.15 250.591 962.43 251.083 961.91 252.066C961.39 253.037 961.13 254.533 961.13 256.554ZM964.07 262.517C965.003 262.517 965.73 262.032 966.25 261.061C966.77 260.077 967.03 258.575 967.03 256.554C967.03 254.839 966.863 253.509 966.53 252.565L962.09 261.48C962.57 262.171 963.23 262.517 964.07 262.517Z" fill="url(#paint70_linear_175_198)"/>
<path d="M965.27 285.15H968.21V286.207H960.59V285.15H963.99V273.942L960.75 275.876L960.19 274.979L964.19 272.506H965.27V285.15Z" fill="url(#paint71_linear_175_198)"/>
<path d="M965.27 307.943H968.21V309H960.59V307.943H963.99V296.735L960.75 298.669L960.19 297.772L964.19 295.299H965.27V307.943Z" fill="url(#paint72_linear_175_198)"/>
<path d="M908.36 44.3784C909.786 44.3784 910.866 44.9834 911.599 46.1933C912.346 47.3899 912.719 49.1317 912.719 51.4185C912.719 53.7054 912.346 55.4538 911.599 56.6637C910.866 57.8736 909.786 58.4786 908.36 58.4786C906.946 58.4786 905.867 57.8736 905.12 56.6637C904.373 55.4538 904 53.7054 904 51.4185C904 49.145 904.373 47.4032 905.12 46.1933C905.867 44.9834 906.946 44.3784 908.36 44.3784ZM905.42 51.4185C905.42 53.0406 905.567 54.3104 905.86 55.2278L910.3 46.3927C909.833 45.7678 909.186 45.4554 908.36 45.4554C907.44 45.4554 906.72 45.9473 906.2 46.9312C905.68 47.9018 905.42 49.3976 905.42 51.4185ZM908.36 57.3817C909.293 57.3817 910.02 56.8964 910.54 55.9258C911.06 54.9419 911.319 53.4395 911.319 51.4185C911.319 49.7034 911.153 48.3738 910.82 47.4298L906.38 56.3446C906.86 57.036 907.52 57.3817 908.36 57.3817Z" fill="url(#paint73_linear_175_198)"/>
<path d="M908.36 67.1712C909.786 67.1712 910.866 67.7762 911.599 68.9861C912.346 70.1827 912.719 71.9245 912.719 74.2113C912.719 76.4982 912.346 78.2466 911.599 79.4565C910.866 80.6664 909.786 81.2714 908.36 81.2714C906.946 81.2714 905.867 80.6664 905.12 79.4565C904.373 78.2466 904 76.4982 904 74.2113C904 71.9378 904.373 70.196 905.12 68.9861C905.867 67.7762 906.946 67.1712 908.36 67.1712ZM905.42 74.2113C905.42 75.8334 905.567 77.1032 905.86 78.0206L910.3 69.1855C909.833 68.5606 909.186 68.2482 908.36 68.2482C907.44 68.2482 906.72 68.7401 906.2 69.724C905.68 70.6946 905.42 72.1904 905.42 74.2113ZM908.36 80.1745C909.293 80.1745 910.02 79.6892 910.54 78.7186C911.06 77.7347 911.319 76.2323 911.319 74.2113C911.319 72.4962 911.153 71.1666 910.82 70.2226L906.38 79.1374C906.86 79.8288 907.52 80.1745 908.36 80.1745Z" fill="url(#paint74_linear_175_198)"/>
<path d="M909.56 102.808H912.499V103.865H904.88V102.808H908.28V91.5994L905.04 93.5339L904.48 92.6365L908.48 90.1635H909.56V102.808Z" fill="url(#paint75_linear_175_198)"/>
<path d="M908.36 112.757C909.786 112.757 910.866 113.362 911.599 114.572C912.346 115.768 912.719 117.51 912.719 119.797C912.719 122.084 912.346 123.832 911.599 125.042C910.866 126.252 909.786 126.857 908.36 126.857C906.946 126.857 905.867 126.252 905.12 125.042C904.373 123.832 904 122.084 904 119.797C904 117.523 904.373 115.782 905.12 114.572C905.867 113.362 906.946 112.757 908.36 112.757ZM905.42 119.797C905.42 121.419 905.567 122.689 905.86 123.606L910.3 114.771C909.833 114.146 909.186 113.834 908.36 113.834C907.44 113.834 906.72 114.326 906.2 115.31C905.68 116.28 905.42 117.776 905.42 119.797ZM908.36 125.76C909.293 125.76 910.02 125.275 910.54 124.304C911.06 123.32 911.319 121.818 911.319 119.797C911.319 118.082 911.153 116.752 910.82 115.808L906.38 124.723C906.86 125.414 907.52 125.76 908.36 125.76Z" fill="url(#paint76_linear_175_198)"/>
<path d="M909.56 148.393H912.499V149.45H904.88V148.393H908.28V137.185L905.04 139.12L904.48 138.222L908.48 135.749H909.56V148.393Z" fill="url(#paint77_linear_175_198)"/>
<path d="M909.56 171.186H912.499V172.243H904.88V171.186H908.28V159.978L905.04 161.912L904.48 161.015L908.48 158.542H909.56V171.186Z" fill="url(#paint78_linear_175_198)"/>
<path d="M946.7 11.6365H949.64V12.6936H942.02V11.6365H945.42V0.428188L942.18 2.36273L941.62 1.46526L945.62 -1.00776H946.7V11.6365Z" fill="url(#paint79_linear_175_198)"/>
<path d="M945.5 21.5856C946.927 21.5856 948.006 22.1906 948.74 23.4005C949.486 24.5971 949.86 26.3389 949.86 28.6257C949.86 30.9126 949.486 32.661 948.74 33.8709C948.006 35.0808 946.927 35.6858 945.5 35.6858C944.087 35.6858 943.007 35.0808 942.26 33.8709C941.514 32.661 941.14 30.9126 941.14 28.6257C941.14 26.3522 941.514 24.6104 942.26 23.4005C943.007 22.1906 944.087 21.5856 945.5 21.5856ZM942.56 28.6257C942.56 30.2478 942.707 31.5176 943 32.435L947.44 23.5999C946.973 22.975 946.327 22.6626 945.5 22.6626C944.58 22.6626 943.86 23.1545 943.34 24.1384C942.82 25.109 942.56 26.6048 942.56 28.6257ZM945.5 34.5889C946.433 34.5889 947.16 34.1036 947.68 33.133C948.2 32.1491 948.46 30.6467 948.46 28.6257C948.46 26.9106 948.293 25.581 947.96 24.637L943.52 33.5518C944 34.2432 944.66 34.5889 945.5 34.5889Z" fill="url(#paint80_linear_175_198)"/>
<path d="M946.7 57.2221H949.64V58.2792H942.02V57.2221H945.42V46.0138L942.18 47.9483L941.62 47.0509L945.62 44.5778H946.7V57.2221Z" fill="url(#paint81_linear_175_198)"/>
<path d="M946.7 80.015H949.64V81.072H942.02V80.015H945.42V68.8066L942.18 70.7411L941.62 69.8437L945.62 67.3706H946.7V80.015Z" fill="url(#paint82_linear_175_198)"/>
<path d="M945.5 89.964C946.927 89.964 948.006 90.569 948.74 91.7789C949.486 92.9755 949.86 94.7173 949.86 97.0041C949.86 99.291 949.486 101.039 948.74 102.249C948.006 103.459 946.927 104.064 945.5 104.064C944.087 104.064 943.007 103.459 942.26 102.249C941.514 101.039 941.14 99.291 941.14 97.0041C941.14 94.7306 941.514 92.9888 942.26 91.7789C943.007 90.569 944.087 89.964 945.5 89.964ZM942.56 97.0041C942.56 98.6262 942.707 99.896 943 100.813L947.44 91.9783C946.973 91.3534 946.327 91.041 945.5 91.041C944.58 91.041 943.86 91.5329 943.34 92.5168C942.82 93.4874 942.56 94.9832 942.56 97.0041ZM945.5 102.967C946.433 102.967 947.16 102.482 947.68 101.511C948.2 100.528 948.46 99.0251 948.46 97.0041C948.46 95.289 948.293 93.9594 947.96 93.0154L943.52 101.93C944 102.622 944.66 102.967 945.5 102.967Z" fill="url(#paint83_linear_175_198)"/>
<path d="M946.7 125.601H949.64V126.658H942.02V125.601H945.42V114.392L942.18 116.327L941.62 115.429L945.62 112.956H946.7V125.601Z" fill="url(#paint84_linear_175_198)"/>
<path d="M946.7 148.393H949.64V149.45H942.02V148.393H945.42V137.185L942.18 139.12L941.62 138.222L945.62 135.749H946.7V148.393Z" fill="url(#paint85_linear_175_198)"/>
<path d="M945.5 158.342C946.927 158.342 948.006 158.947 948.74 160.157C949.486 161.354 949.86 163.096 949.86 165.383C949.86 167.669 949.486 169.418 948.74 170.628C948.006 171.838 946.927 172.443 945.5 172.443C944.087 172.443 943.007 171.838 942.26 170.628C941.514 169.418 941.14 167.669 941.14 165.383C941.14 163.109 941.514 161.367 942.26 160.157C943.007 158.947 944.087 158.342 945.5 158.342ZM942.56 165.383C942.56 167.005 942.707 168.274 943 169.192L947.44 160.357C946.973 159.732 946.327 159.419 945.5 159.419C944.58 159.419 943.86 159.911 943.34 160.895C942.82 161.866 942.56 163.362 942.56 165.383ZM945.5 171.346C946.433 171.346 947.16 170.86 947.68 169.89C948.2 168.906 948.46 167.404 948.46 165.383C948.46 163.667 948.293 162.338 947.96 161.394L943.52 170.309C944 171 944.66 171.346 945.5 171.346Z" fill="url(#paint86_linear_175_198)"/>
<path d="M946.7 193.979H949.64V195.036H942.02V193.979H945.42V182.771L942.18 184.705L941.62 183.808L945.62 181.335H946.7V193.979Z" fill="url(#paint87_linear_175_198)"/>
<path d="M945.5 203.928C946.927 203.928 948.006 204.533 948.74 205.743C949.486 206.94 949.86 208.681 949.86 210.968C949.86 213.255 949.486 215.003 948.74 216.213C948.006 217.423 946.927 218.028 945.5 218.028C944.087 218.028 943.007 217.423 942.26 216.213C941.514 215.003 941.14 213.255 941.14 210.968C941.14 208.695 941.514 206.953 942.26 205.743C943.007 204.533 944.087 203.928 945.5 203.928ZM942.56 210.968C942.56 212.59 942.707 213.86 943 214.777L947.44 205.942C946.973 205.317 946.327 205.005 945.5 205.005C944.58 205.005 943.86 205.497 943.34 206.481C942.82 207.451 942.56 208.947 942.56 210.968ZM945.5 216.931C946.433 216.931 947.16 216.446 947.68 215.475C948.2 214.492 948.46 212.989 948.46 210.968C948.46 209.253 948.293 207.923 947.96 206.979L943.52 215.894C944 216.586 944.66 216.931 945.5 216.931Z" fill="url(#paint88_linear_175_198)"/>
<path d="M982.64 -1.2072C984.067 -1.2072 985.147 -0.602238 985.88 0.60768C986.627 1.8043 987 3.54605 987 5.83293C987 8.11981 986.627 9.86821 985.88 11.0781C985.147 12.288 984.067 12.893 982.64 12.893C981.227 12.893 980.147 12.288 979.401 11.0781C978.654 9.86821 978.281 8.11981 978.281 5.83293C978.281 3.55935 978.654 1.8176 979.401 0.60768C980.147 -0.602238 981.227 -1.2072 982.64 -1.2072ZM979.7 5.83293C979.7 7.45502 979.847 8.72477 980.14 9.64218L984.58 0.807116C984.114 0.182213 983.467 -0.130236 982.64 -0.130236C981.72 -0.130236 981 0.361706 980.48 1.3456C979.96 2.31619 979.7 3.81197 979.7 5.83293ZM982.64 11.7961C983.574 11.7961 984.3 11.3108 984.82 10.3402C985.34 9.35632 985.6 7.85389 985.6 5.83293C985.6 4.11777 985.433 2.78819 985.1 1.84419L980.66 10.759C981.14 11.4504 981.8 11.7961 982.64 11.7961Z" fill="url(#paint89_linear_175_198)"/>
<path d="M983.84 34.4293H986.78V35.4864H979.161V34.4293H982.56V23.221L979.321 25.1555L978.761 24.2581L982.76 21.785H983.84V34.4293Z" fill="url(#paint90_linear_175_198)"/>
<path d="M983.84 57.2221H986.78V58.2792H979.161V57.2221H982.56V46.0138L979.321 47.9483L978.761 47.0509L982.76 44.5778H983.84V57.2221Z" fill="url(#paint91_linear_175_198)"/>
<path d="M982.64 67.1712C984.067 67.1712 985.147 67.7762 985.88 68.9861C986.627 70.1827 987 71.9245 987 74.2113C987 76.4982 986.627 78.2466 985.88 79.4565C985.147 80.6664 984.067 81.2714 982.64 81.2714C981.227 81.2714 980.147 80.6664 979.401 79.4565C978.654 78.2466 978.281 76.4982 978.281 74.2113C978.281 71.9378 978.654 70.196 979.401 68.9861C980.147 67.7762 981.227 67.1712 982.64 67.1712ZM979.7 74.2113C979.7 75.8334 979.847 77.1032 980.14 78.0206L984.58 69.1855C984.114 68.5606 983.467 68.2482 982.64 68.2482C981.72 68.2482 981 68.7401 980.48 69.724C979.96 70.6946 979.7 72.1904 979.7 74.2113ZM982.64 80.1745C983.574 80.1745 984.3 79.6892 984.82 78.7186C985.34 77.7347 985.6 76.2323 985.6 74.2113C985.6 72.4962 985.433 71.1666 985.1 70.2226L980.66 79.1374C981.14 79.8288 981.8 80.1745 982.64 80.1745Z" fill="url(#paint92_linear_175_198)"/>
<path d="M982.64 89.964C984.067 89.964 985.147 90.569 985.88 91.7789C986.627 92.9755 987 94.7173 987 97.0041C987 99.291 986.627 101.039 985.88 102.249C985.147 103.459 984.067 104.064 982.64 104.064C981.227 104.064 980.147 103.459 979.401 102.249C978.654 101.039 978.281 99.291 978.281 97.0041C978.281 94.7306 978.654 92.9888 979.401 91.7789C980.147 90.569 981.227 89.964 982.64 89.964ZM979.7 97.0041C979.7 98.6262 979.847 99.896 980.14 100.813L984.58 91.9783C984.114 91.3534 983.467 91.041 982.64 91.041C981.72 91.041 981 91.5329 980.48 92.5168C979.96 93.4874 979.7 94.9832 979.7 97.0041ZM982.64 102.967C983.574 102.967 984.3 102.482 984.82 101.511C985.34 100.528 985.6 99.0251 985.6 97.0041C985.6 95.289 985.433 93.9594 985.1 93.0154L980.66 101.93C981.14 102.622 981.8 102.967 982.64 102.967Z" fill="url(#paint93_linear_175_198)"/>
</g>
<defs>
<filter id="filter0_f_175_198" x="-551.19" y="-710.19" width="2141.38" height="1500.38" filterUnits="userSpaceOnUse" color-interpolation-filters="sRGB">
<feFlood flood-opacity="0" result="BackgroundImageFix"/>
<feBlend mode="normal" in="SourceGraphic" in2="BackgroundImageFix" result="shape"/>
<feGaussianBlur stdDeviation="200.095" result="effect1_foregroundBlur_175_198"/>
</filter>
<linearGradient id="paint0_linear_175_198" x1="59.5" y1="276" x2="59.5" y2="587.381" gradientUnits="userSpaceOnUse">
<stop stop-color="#F7DD43"/>
<stop offset="1" stop-color="#F7DD43" stop-opacity="0"/>
</linearGradient>
<linearGradient id="paint1_linear_175_198" x1="59.5" y1="276" x2="59.5" y2="587.381" gradientUnits="userSpaceOnUse">
<stop stop-color="#F7DD43"/>
<stop offset="1" stop-color="#F7DD43" stop-opacity="0"/>
</linearGradient>
<linearGradient id="paint2_linear_175_198" x1="59.5" y1="276" x2="59.5" y2="587.381" gradientUnits="userSpaceOnUse">
<stop stop-color="#F7DD43"/>
<stop offset="1" stop-color="#F7DD43" stop-opacity="0"/>
</linearGradient>
<linearGradient id="paint3_linear_175_198" x1="59.5" y1="276" x2="59.5" y2="587.381" gradientUnits="userSpaceOnUse">
<stop stop-color="#F7DD43"/>
<stop offset="1" stop-color="#F7DD43" stop-opacity="0"/>
</linearGradient>
<linearGradient id="paint4_linear_175_198" x1="59.5" y1="276" x2="59.5" y2="587.381" gradientUnits="userSpaceOnUse">
<stop stop-color="#F7DD43"/>
<stop offset="1" stop-color="#F7DD43" stop-opacity="0"/>
</linearGradient>
<linearGradient id="paint5_linear_175_198" x1="59.5" y1="276" x2="59.5" y2="587.381" gradientUnits="userSpaceOnUse">
<stop stop-color="#F7DD43"/>
<stop offset="1" stop-color="#F7DD43" stop-opacity="0"/>
</linearGradient>
<linearGradient id="paint6_linear_175_198" x1="59.5" y1="276" x2="59.5" y2="587.381" gradientUnits="userSpaceOnUse">
<stop stop-color="#F7DD43"/>
<stop offset="1" stop-color="#F7DD43" stop-opacity="0"/>
</linearGradient>
<linearGradient id="paint7_linear_175_198" x1="59.5" y1="276" x2="59.5" y2="587.381" gradientUnits="userSpaceOnUse">
<stop stop-color="#F7DD43"/>
<stop offset="1" stop-color="#F7DD43" stop-opacity="0"/>
</linearGradient>
<linearGradient id="paint8_linear_175_198" x1="59.5" y1="276" x2="59.5" y2="587.381" gradientUnits="userSpaceOnUse">
<stop stop-color="#F7DD43"/>
<stop offset="1" stop-color="#F7DD43" stop-opacity="0"/>
</linearGradient>
<linearGradient id="paint9_linear_175_198" x1="59.5" y1="276" x2="59.5" y2="587.381" gradientUnits="userSpaceOnUse">
<stop stop-color="#F7DD43"/>
<stop offset="1" stop-color="#F7DD43" stop-opacity="0"/>
</linearGradient>
<linearGradient id="paint10_linear_175_198" x1="59.5" y1="276" x2="59.5" y2="587.381" gradientUnits="userSpaceOnUse">
<stop stop-color="#F7DD43"/>
<stop offset="1" stop-color="#F7DD43" stop-opacity="0"/>
</linearGradient>
<linearGradient id="paint11_linear_175_198" x1="59.5" y1="276" x2="59.5" y2="587.381" gradientUnits="userSpaceOnUse">
<stop stop-color="#F7DD43"/>
<stop offset="1" stop-color="#F7DD43" stop-opacity="0"/>
</linearGradient>
<linearGradient id="paint12_linear_175_198" x1="59.5" y1="276" x2="59.5" y2="587.381" gradientUnits="userSpaceOnUse">
<stop stop-color="#F7DD43"/>
<stop offset="1" stop-color="#F7DD43" stop-opacity="0"/>
</linearGradient>
<linearGradient id="paint13_linear_175_198" x1="59.5" y1="276" x2="59.5" y2="587.381" gradientUnits="userSpaceOnUse">
<stop stop-color="#F7DD43"/>
<stop offset="1" stop-color="#F7DD43" stop-opacity="0"/>
</linearGradient>
<linearGradient id="paint14_linear_175_198" x1="59.5" y1="276" x2="59.5" y2="587.381" gradientUnits="userSpaceOnUse">
<stop stop-color="#F7DD43"/>
<stop offset="1" stop-color="#F7DD43" stop-opacity="0"/>
</linearGradient>
<linearGradient id="paint15_linear_175_198" x1="59.5" y1="276" x2="59.5" y2="587.381" gradientUnits="userSpaceOnUse">
<stop stop-color="#F7DD43"/>
<stop offset="1" stop-color="#F7DD43" stop-opacity="0"/>
</linearGradient>
<linearGradient id="paint16_linear_175_198" x1="59.5" y1="276" x2="59.5" y2="587.381" gradientUnits="userSpaceOnUse">
<stop stop-color="#F7DD43"/>
<stop offset="1" stop-color="#F7DD43" stop-opacity="0"/>
</linearGradient>
<linearGradient id="paint17_linear_175_198" x1="59.5" y1="276" x2="59.5" y2="587.381" gradientUnits="userSpaceOnUse">
<stop stop-color="#F7DD43"/>
<stop offset="1" stop-color="#F7DD43" stop-opacity="0"/>
</linearGradient>
<linearGradient id="paint18_linear_175_198" x1="59.5" y1="276" x2="59.5" y2="587.381" gradientUnits="userSpaceOnUse">
<stop stop-color="#F7DD43"/>
<stop offset="1" stop-color="#F7DD43" stop-opacity="0"/>
</linearGradient>
<linearGradient id="paint19_linear_175_198" x1="59.5" y1="276" x2="59.5" y2="587.381" gradientUnits="userSpaceOnUse">
<stop stop-color="#F7DD43"/>
<stop offset="1" stop-color="#F7DD43" stop-opacity="0"/>
</linearGradient>
<linearGradient id="paint20_linear_175_198" x1="59.5" y1="276" x2="59.5" y2="587.381" gradientUnits="userSpaceOnUse">
<stop stop-color="#F7DD43"/>
<stop offset="1" stop-color="#F7DD43" stop-opacity="0"/>
</linearGradient>
<linearGradient id="paint21_linear_175_198" x1="59.5" y1="276" x2="59.5" y2="587.381" gradientUnits="userSpaceOnUse">
<stop stop-color="#F7DD43"/>
<stop offset="1" stop-color="#F7DD43" stop-opacity="0"/>
</linearGradient>
<linearGradient id="paint22_linear_175_198" x1="59.5" y1="276" x2="59.5" y2="587.381" gradientUnits="userSpaceOnUse">
<stop stop-color="#F7DD43"/>
<stop offset="1" stop-color="#F7DD43" stop-opacity="0"/>
</linearGradient>
<linearGradient id="paint23_linear_175_198" x1="59.5" y1="276" x2="59.5" y2="587.381" gradientUnits="userSpaceOnUse">
<stop stop-color="#F7DD43"/>
<stop offset="1" stop-color="#F7DD43" stop-opacity="0"/>
</linearGradient>
<linearGradient id="paint24_linear_175_198" x1="59.5" y1="276" x2="59.5" y2="587.381" gradientUnits="userSpaceOnUse">
<stop stop-color="#F7DD43"/>
<stop offset="1" stop-color="#F7DD43" stop-opacity="0"/>
</linearGradient>
<linearGradient id="paint25_linear_175_198" x1="59.5" y1="276" x2="59.5" y2="587.381" gradientUnits="userSpaceOnUse">
<stop stop-color="#F7DD43"/>
<stop offset="1" stop-color="#F7DD43" stop-opacity="0"/>
</linearGradient>
<linearGradient id="paint26_linear_175_198" x1="59.5" y1="276" x2="59.5" y2="587.381" gradientUnits="userSpaceOnUse">
<stop stop-color="#F7DD43"/>
<stop offset="1" stop-color="#F7DD43" stop-opacity="0"/>
</linearGradient>
<linearGradient id="paint27_linear_175_198" x1="59.5" y1="276" x2="59.5" y2="587.381" gradientUnits="userSpaceOnUse">
<stop stop-color="#F7DD43"/>
<stop offset="1" stop-color="#F7DD43" stop-opacity="0"/>
</linearGradient>
<linearGradient id="paint28_linear_175_198" x1="59.5" y1="276" x2="59.5" y2="587.381" gradientUnits="userSpaceOnUse">
<stop stop-color="#F7DD43"/>
<stop offset="1" stop-color="#F7DD43" stop-opacity="0"/>
</linearGradient>
<linearGradient id="paint29_linear_175_198" x1="59.5" y1="276" x2="59.5" y2="587.381" gradientUnits="userSpaceOnUse">
<stop stop-color="#F7DD43"/>
<stop offset="1" stop-color="#F7DD43" stop-opacity="0"/>
</linearGradient>
<linearGradient id="paint30_linear_175_198" x1="59.5" y1="276" x2="59.5" y2="587.381" gradientUnits="userSpaceOnUse">
<stop stop-color="#F7DD43"/>
<stop offset="1" stop-color="#F7DD43" stop-opacity="0"/>
</linearGradient>
<linearGradient id="paint31_linear_175_198" x1="59.5" y1="276" x2="59.5" y2="587.381" gradientUnits="userSpaceOnUse">
<stop stop-color="#F7DD43"/>
<stop offset="1" stop-color="#F7DD43" stop-opacity="0"/>
</linearGradient>
<linearGradient id="paint32_linear_175_198" x1="59.5" y1="276" x2="59.5" y2="587.381" gradientUnits="userSpaceOnUse">
<stop stop-color="#F7DD43"/>
<stop offset="1" stop-color="#F7DD43" stop-opacity="0"/>
</linearGradient>
<linearGradient id="paint33_linear_175_198" x1="59.5" y1="276" x2="59.5" y2="587.381" gradientUnits="userSpaceOnUse">
<stop stop-color="#F7DD43"/>
<stop offset="1" stop-color="#F7DD43" stop-opacity="0"/>
</linearGradient>
<linearGradient id="paint34_linear_175_198" x1="59.5" y1="276" x2="59.5" y2="587.381" gradientUnits="userSpaceOnUse">
<stop stop-color="#F7DD43"/>
<stop offset="1" stop-color="#F7DD43" stop-opacity="0"/>
</linearGradient>
<linearGradient id="paint35_linear_175_198" x1="59.5" y1="276" x2="59.5" y2="587.381" gradientUnits="userSpaceOnUse">
<stop stop-color="#F7DD43"/>
<stop offset="1" stop-color="#F7DD43" stop-opacity="0"/>
</linearGradient>
<linearGradient id="paint36_linear_175_198" x1="59.5" y1="276" x2="59.5" y2="587.381" gradientUnits="userSpaceOnUse">
<stop stop-color="#F7DD43"/>
<stop offset="1" stop-color="#F7DD43" stop-opacity="0"/>
</linearGradient>
<linearGradient id="paint37_linear_175_198" x1="59.5" y1="276" x2="59.5" y2="587.381" gradientUnits="userSpaceOnUse">
<stop stop-color="#F7DD43"/>
<stop offset="1" stop-color="#F7DD43" stop-opacity="0"/>
</linearGradient>
<linearGradient id="paint38_linear_175_198" x1="59.5" y1="276" x2="59.5" y2="587.381" gradientUnits="userSpaceOnUse">
<stop stop-color="#F7DD43"/>
<stop offset="1" stop-color="#F7DD43" stop-opacity="0"/>
</linearGradient>
<linearGradient id="paint39_linear_175_198" x1="59.5" y1="276" x2="59.5" y2="587.381" gradientUnits="userSpaceOnUse">
<stop stop-color="#F7DD43"/>
<stop offset="1" stop-color="#F7DD43" stop-opacity="0"/>
</linearGradient>
<linearGradient id="paint40_linear_175_198" x1="59.5" y1="276" x2="59.5" y2="587.381" gradientUnits="userSpaceOnUse">
<stop stop-color="#F7DD43"/>
<stop offset="1" stop-color="#F7DD43" stop-opacity="0"/>
</linearGradient>
<linearGradient id="paint41_linear_175_198" x1="59.5" y1="276" x2="59.5" y2="587.381" gradientUnits="userSpaceOnUse">
<stop stop-color="#F7DD43"/>
<stop offset="1" stop-color="#F7DD43" stop-opacity="0"/>
</linearGradient>
<linearGradient id="paint42_linear_175_198" x1="59.5" y1="276" x2="59.5" y2="587.381" gradientUnits="userSpaceOnUse">
<stop stop-color="#F7DD43"/>
<stop offset="1" stop-color="#F7DD43" stop-opacity="0"/>
</linearGradient>
<linearGradient id="paint43_linear_175_198" x1="59.5" y1="276" x2="59.5" y2="587.381" gradientUnits="userSpaceOnUse">
<stop stop-color="#F7DD43"/>
<stop offset="1" stop-color="#F7DD43" stop-opacity="0"/>
</linearGradient>
<linearGradient id="paint44_linear_175_198" x1="59.5" y1="276" x2="59.5" y2="587.381" gradientUnits="userSpaceOnUse">
<stop stop-color="#F7DD43"/>
<stop offset="1" stop-color="#F7DD43" stop-opacity="0"/>
</linearGradient>
<linearGradient id="paint45_linear_175_198" x1="59.5" y1="276" x2="59.5" y2="587.381" gradientUnits="userSpaceOnUse">
<stop stop-color="#F7DD43"/>
<stop offset="1" stop-color="#F7DD43" stop-opacity="0"/>
</linearGradient>
<linearGradient id="paint46_linear_175_198" x1="59.5" y1="276" x2="59.5" y2="587.381" gradientUnits="userSpaceOnUse">
<stop stop-color="#F7DD43"/>
<stop offset="1" stop-color="#F7DD43" stop-opacity="0"/>
</linearGradient>
<linearGradient id="paint47_linear_175_198" x1="945.5" y1="-24" x2="945.5" y2="274.818" gradientUnits="userSpaceOnUse">
<stop stop-color="#F7DD43"/>
<stop offset="1" stop-color="#F7DD43" stop-opacity="0"/>
</linearGradient>
<linearGradient id="paint48_linear_175_198" x1="945.5" y1="-24" x2="945.5" y2="274.818" gradientUnits="userSpaceOnUse">
<stop stop-color="#F7DD43"/>
<stop offset="1" stop-color="#F7DD43" stop-opacity="0"/>
</linearGradient>
<linearGradient id="paint49_linear_175_198" x1="945.5" y1="-24" x2="945.5" y2="274.818" gradientUnits="userSpaceOnUse">
<stop stop-color="#F7DD43"/>
<stop offset="1" stop-color="#F7DD43" stop-opacity="0"/>
</linearGradient>
<linearGradient id="paint50_linear_175_198" x1="945.5" y1="-24" x2="945.5" y2="274.818" gradientUnits="userSpaceOnUse">
<stop stop-color="#F7DD43"/>
<stop offset="1" stop-color="#F7DD43" stop-opacity="0"/>
</linearGradient>
<linearGradient id="paint51_linear_175_198" x1="945.5" y1="-24" x2="945.5" y2="274.818" gradientUnits="userSpaceOnUse">
<stop stop-color="#F7DD43"/>
<stop offset="1" stop-color="#F7DD43" stop-opacity="0"/>
</linearGradient>
<linearGradient id="paint52_linear_175_198" x1="945.5" y1="-24" x2="945.5" y2="274.818" gradientUnits="userSpaceOnUse">
<stop stop-color="#F7DD43"/>
<stop offset="1" stop-color="#F7DD43" stop-opacity="0"/>
</linearGradient>
<linearGradient id="paint53_linear_175_198" x1="945.5" y1="-24" x2="945.5" y2="274.818" gradientUnits="userSpaceOnUse">
<stop stop-color="#F7DD43"/>
<stop offset="1" stop-color="#F7DD43" stop-opacity="0"/>
</linearGradient>
<linearGradient id="paint54_linear_175_198" x1="945.5" y1="-24" x2="945.5" y2="274.818" gradientUnits="userSpaceOnUse">
<stop stop-color="#F7DD43"/>
<stop offset="1" stop-color="#F7DD43" stop-opacity="0"/>
</linearGradient>
<linearGradient id="paint55_linear_175_198" x1="945.5" y1="-24" x2="945.5" y2="274.818" gradientUnits="userSpaceOnUse">
<stop stop-color="#F7DD43"/>
<stop offset="1" stop-color="#F7DD43" stop-opacity="0"/>
</linearGradient>
<linearGradient id="paint56_linear_175_198" x1="945.5" y1="-24" x2="945.5" y2="274.818" gradientUnits="userSpaceOnUse">
<stop stop-color="#F7DD43"/>
<stop offset="1" stop-color="#F7DD43" stop-opacity="0"/>
</linearGradient>
<linearGradient id="paint57_linear_175_198" x1="945.5" y1="-24" x2="945.5" y2="274.818" gradientUnits="userSpaceOnUse">
<stop stop-color="#F7DD43"/>
<stop offset="1" stop-color="#F7DD43" stop-opacity="0"/>
</linearGradient>
<linearGradient id="paint58_linear_175_198" x1="945.5" y1="-24" x2="945.5" y2="274.818" gradientUnits="userSpaceOnUse">
<stop stop-color="#F7DD43"/>
<stop offset="1" stop-color="#F7DD43" stop-opacity="0"/>
</linearGradient>
<linearGradient id="paint59_linear_175_198" x1="945.5" y1="-24" x2="945.5" y2="274.818" gradientUnits="userSpaceOnUse">
<stop stop-color="#F7DD43"/>
<stop offset="1" stop-color="#F7DD43" stop-opacity="0"/>
</linearGradient>
<linearGradient id="paint60_linear_175_198" x1="945.5" y1="-24" x2="945.5" y2="274.818" gradientUnits="userSpaceOnUse">
<stop stop-color="#F7DD43"/>
<stop offset="1" stop-color="#F7DD43" stop-opacity="0"/>
</linearGradient>
<linearGradient id="paint61_linear_175_198" x1="945.5" y1="-24" x2="945.5" y2="274.818" gradientUnits="userSpaceOnUse">
<stop stop-color="#F7DD43"/>
<stop offset="1" stop-color="#F7DD43" stop-opacity="0"/>
</linearGradient>
<linearGradient id="paint62_linear_175_198" x1="945.5" y1="-24" x2="945.5" y2="274.818" gradientUnits="userSpaceOnUse">
<stop stop-color="#F7DD43"/>
<stop offset="1" stop-color="#F7DD43" stop-opacity="0"/>
</linearGradient>
<linearGradient id="paint63_linear_175_198" x1="945.5" y1="-24" x2="945.5" y2="274.818" gradientUnits="userSpaceOnUse">
<stop stop-color="#F7DD43"/>
<stop offset="1" stop-color="#F7DD43" stop-opacity="0"/>
</linearGradient>
<linearGradient id="paint64_linear_175_198" x1="945.5" y1="-24" x2="945.5" y2="274.818" gradientUnits="userSpaceOnUse">
<stop stop-color="#F7DD43"/>
<stop offset="1" stop-color="#F7DD43" stop-opacity="0"/>
</linearGradient>
<linearGradient id="paint65_linear_175_198" x1="945.5" y1="-24" x2="945.5" y2="274.818" gradientUnits="userSpaceOnUse">
<stop stop-color="#F7DD43"/>
<stop offset="1" stop-color="#F7DD43" stop-opacity="0"/>
</linearGradient>
<linearGradient id="paint66_linear_175_198" x1="945.5" y1="-24" x2="945.5" y2="274.818" gradientUnits="userSpaceOnUse">
<stop stop-color="#F7DD43"/>
<stop offset="1" stop-color="#F7DD43" stop-opacity="0"/>
</linearGradient>
<linearGradient id="paint67_linear_175_198" x1="945.5" y1="-24" x2="945.5" y2="274.818" gradientUnits="userSpaceOnUse">
<stop stop-color="#F7DD43"/>
<stop offset="1" stop-color="#F7DD43" stop-opacity="0"/>
</linearGradient>
<linearGradient id="paint68_linear_175_198" x1="945.5" y1="-24" x2="945.5" y2="274.818" gradientUnits="userSpaceOnUse">
<stop stop-color="#F7DD43"/>
<stop offset="1" stop-color="#F7DD43" stop-opacity="0"/>
</linearGradient>
<linearGradient id="paint69_linear_175_198" x1="945.5" y1="-24" x2="945.5" y2="274.818" gradientUnits="userSpaceOnUse">
<stop stop-color="#F7DD43"/>
<stop offset="1" stop-color="#F7DD43" stop-opacity="0"/>
</linearGradient>
<linearGradient id="paint70_linear_175_198" x1="945.5" y1="-24" x2="945.5" y2="274.818" gradientUnits="userSpaceOnUse">
<stop stop-color="#F7DD43"/>
<stop offset="1" stop-color="#F7DD43" stop-opacity="0"/>
</linearGradient>
<linearGradient id="paint71_linear_175_198" x1="945.5" y1="-24" x2="945.5" y2="274.818" gradientUnits="userSpaceOnUse">
<stop stop-color="#F7DD43"/>
<stop offset="1" stop-color="#F7DD43" stop-opacity="0"/>
</linearGradient>
<linearGradient id="paint72_linear_175_198" x1="945.5" y1="-24" x2="945.5" y2="274.818" gradientUnits="userSpaceOnUse">
<stop stop-color="#F7DD43"/>
<stop offset="1" stop-color="#F7DD43" stop-opacity="0"/>
</linearGradient>
<linearGradient id="paint73_linear_175_198" x1="945.5" y1="-24" x2="945.5" y2="274.818" gradientUnits="userSpaceOnUse">
<stop stop-color="#F7DD43"/>
<stop offset="1" stop-color="#F7DD43" stop-opacity="0"/>
</linearGradient>
<linearGradient id="paint74_linear_175_198" x1="945.5" y1="-24" x2="945.5" y2="274.818" gradientUnits="userSpaceOnUse">
<stop stop-color="#F7DD43"/>
<stop offset="1" stop-color="#F7DD43" stop-opacity="0"/>
</linearGradient>
<linearGradient id="paint75_linear_175_198" x1="945.5" y1="-24" x2="945.5" y2="274.818" gradientUnits="userSpaceOnUse">
<stop stop-color="#F7DD43"/>
<stop offset="1" stop-color="#F7DD43" stop-opacity="0"/>
</linearGradient>
<linearGradient id="paint76_linear_175_198" x1="945.5" y1="-24" x2="945.5" y2="274.818" gradientUnits="userSpaceOnUse">
<stop stop-color="#F7DD43"/>
<stop offset="1" stop-color="#F7DD43" stop-opacity="0"/>
</linearGradient>
<linearGradient id="paint77_linear_175_198" x1="945.5" y1="-24" x2="945.5" y2="274.818" gradientUnits="userSpaceOnUse">
<stop stop-color="#F7DD43"/>
<stop offset="1" stop-color="#F7DD43" stop-opacity="0"/>
</linearGradient>
<linearGradient id="paint78_linear_175_198" x1="945.5" y1="-24" x2="945.5" y2="274.818" gradientUnits="userSpaceOnUse">
<stop stop-color="#F7DD43"/>
<stop offset="1" stop-color="#F7DD43" stop-opacity="0"/>
</linearGradient>
<linearGradient id="paint79_linear_175_198" x1="945.5" y1="-24" x2="945.5" y2="274.818" gradientUnits="userSpaceOnUse">
<stop stop-color="#F7DD43"/>
<stop offset="1" stop-color="#F7DD43" stop-opacity="0"/>
</linearGradient>
<linearGradient id="paint80_linear_175_198" x1="945.5" y1="-24" x2="945.5" y2="274.818" gradientUnits="userSpaceOnUse">
<stop stop-color="#F7DD43"/>
<stop offset="1" stop-color="#F7DD43" stop-opacity="0"/>
</linearGradient>
<linearGradient id="paint81_linear_175_198" x1="945.5" y1="-24" x2="945.5" y2="274.818" gradientUnits="userSpaceOnUse">
<stop stop-color="#F7DD43"/>
<stop offset="1" stop-color="#F7DD43" stop-opacity="0"/>
</linearGradient>
<linearGradient id="paint82_linear_175_198" x1="945.5" y1="-24" x2="945.5" y2="274.818" gradientUnits="userSpaceOnUse">
<stop stop-color="#F7DD43"/>
<stop offset="1" stop-color="#F7DD43" stop-opacity="0"/>
</linearGradient>
<linearGradient id="paint83_linear_175_198" x1="945.5" y1="-24" x2="945.5" y2="274.818" gradientUnits="userSpaceOnUse">
<stop stop-color="#F7DD43"/>
<stop offset="1" stop-color="#F7DD43" stop-opacity="0"/>
</linearGradient>
<linearGradient id="paint84_linear_175_198" x1="945.5" y1="-24" x2="945.5" y2="274.818" gradientUnits="userSpaceOnUse">
<stop stop-color="#F7DD43"/>
<stop offset="1" stop-color="#F7DD43" stop-opacity="0"/>
</linearGradient>
<linearGradient id="paint85_linear_175_198" x1="945.5" y1="-24" x2="945.5" y2="274.818" gradientUnits="userSpaceOnUse">
<stop stop-color="#F7DD43"/>
<stop offset="1" stop-color="#F7DD43" stop-opacity="0"/>
</linearGradient>
<linearGradient id="paint86_linear_175_198" x1="945.5" y1="-24" x2="945.5" y2="274.818" gradientUnits="userSpaceOnUse">
<stop stop-color="#F7DD43"/>
<stop offset="1" stop-color="#F7DD43" stop-opacity="0"/>
</linearGradient>
<linearGradient id="paint87_linear_175_198" x1="945.5" y1="-24" x2="945.5" y2="274.818" gradientUnits="userSpaceOnUse">
<stop stop-color="#F7DD43"/>
<stop offset="1" stop-color="#F7DD43" stop-opacity="0"/>
</linearGradient>
<linearGradient id="paint88_linear_175_198" x1="945.5" y1="-24" x2="945.5" y2="274.818" gradientUnits="userSpaceOnUse">
<stop stop-color="#F7DD43"/>
<stop offset="1" stop-color="#F7DD43" stop-opacity="0"/>
</linearGradient>
<linearGradient id="paint89_linear_175_198" x1="945.5" y1="-24" x2="945.5" y2="274.818" gradientUnits="userSpaceOnUse">
<stop stop-color="#F7DD43"/>
<stop offset="1" stop-color="#F7DD43" stop-opacity="0"/>
</linearGradient>
<linearGradient id="paint90_linear_175_198" x1="945.5" y1="-24" x2="945.5" y2="274.818" gradientUnits="userSpaceOnUse">
<stop stop-color="#F7DD43"/>
<stop offset="1" stop-color="#F7DD43" stop-opacity="0"/>
</linearGradient>
<linearGradient id="paint91_linear_175_198" x1="945.5" y1="-24" x2="945.5" y2="274.818" gradientUnits="userSpaceOnUse">
<stop stop-color="#F7DD43"/>
<stop offset="1" stop-color="#F7DD43" stop-opacity="0"/>
</linearGradient>
<linearGradient id="paint92_linear_175_198" x1="945.5" y1="-24" x2="945.5" y2="274.818" gradientUnits="userSpaceOnUse">
<stop stop-color="#F7DD43"/>
<stop offset="1" stop-color="#F7DD43" stop-opacity="0"/>
</linearGradient>
<linearGradient id="paint93_linear_175_198" x1="945.5" y1="-24" x2="945.5" y2="274.818" gradientUnits="userSpaceOnUse">
<stop stop-color="#F7DD43"/>
<stop offset="1" stop-color="#F7DD43" stop-opacity="0"/>
</linearGradient>
</defs>
</svg>
